{"title":"Dune (1984) original release DVDRip 1.6 GB","uid":5544771,"size":1742922060,"categoryP":"video","categoryS":"movies","magnet":"?xt=urn:btih:7e36dbd4ebaa8e7181f00356348798aa6e900329&amp;dn=Dune+%281984%29+original+release+DVDRip+1.6+GB&amp;tr=udp%3A%2F%2Ftracker.openbittorrent.com%3A80&amp;tr=udp%3A%2F%2Fopen.demonii.com%3A1337&amp;tr=udp%3A%2F%2Ftracker.coppersurfer.tk%3A6969&amp;tr=udp%3A%2F%2Fexodus.desync.com%3A6969","seeders":1,"leechers":1,"uploader":"bhobson333","files":1,"time":1273347201,"description":"I couldn't find a good copy of Dune 1984 on TPB that wasn't a full DVD over 4 GB.  This visual a movie at over 2 hours looks bad when ripped to only 600 MB in my opinion.  So, I did it myself!  :-)\n\nComplete name                    : Dune1984.avi\nFormat                           : AVI\nFormat/Info                      : Audio Video Interleave\nFile size                        : 1.62 GiB\nDuration                         : 2h 16mn\nOverall bit rate                 : 1 703 Kbps\n\nVideo\nID                               : 0\nFormat                           : MPEG-4 Visual\nFormat profile                   : Advanced Simple@L5\nFormat settings, BVOP            : No\nFormat settings, QPel            : No\nFormat settings, GMC             : No warppoints\nFormat settings, Matrix          : Default (MPEG)\nCodec ID                         : XVID\nCodec ID/Hint                    : XviD\nDuration                         : 2h 16mn\nBit rate                         : 1 500 Kbps\nWidth                            : 720 pixels\nHeight                           : 540 pixels\nDisplay aspect ratio             : 4:3\nFrame rate                       : 29.970 fps\nResolution                       : 8 bits\nColorimetry                      : 4:2:0\nScan type                        : Progressive\nBits/(Pixel*Frame)               : 0.129\nStream size                      : 1.43 GiB (88%)\nWriting library                  : XviD 1.1.2 (UTC 2006-11-01)\n\nAudio\nID                               : 1\nFormat                           : MPEG Audio\nFormat version                   : Version 1\nFormat profile                   : Layer 3\nCodec ID                         : 55\nCodec ID/Hint                    : MP3\nDuration                         : 2h 16mn\nBit rate mode                    : Constant\nBit rate                         : 192 Kbps\nChannel(s)                       : 2 channels\nSampling rate                    : 44.1 KHz\nStream size                      : 187 MiB (11%)\nAlignment                        : Split accross interleaves\nInterleave, duration             : 33 ms (1.00 video frame)\nWriting library                  : LAMELAME_MAJOR_VERSI","torrent":{"xt":"urn:btih:7e36dbd4ebaa8e7181f00356348798aa6e900329","amp;dn":"Dune+%281984%29+original+release+DVDRip+1.6+GB","amp;tr":["udp%3A%2F%2Ftracker.openbittorrent.com%3A80","udp%3A%2F%2Fopen.demonii.com%3A1337","udp%3A%2F%2Ftracker.coppersurfer.tk%3A6969","udp%3A%2F%2Fexodus.desync.com%3A6969"],"infoHash":"7e36dbd4ebaa8e7181f00356348798aa6e900329","infoHashBuffer":{"type":"Buffer","data":[126,54,219,212,235,170,142,113,129,240,3,86,52,135,152,170,110,144,3,41]},"announce":[],"urlList":[]}}